<?xml version="1.0" encoding="utf-8"?>
<!-- Generator: Adobe Illustrator 17.0.0, SVG Export Plug-In . SVG Version: 6.00 Build 0)  -->
<!DOCTYPE svg PUBLIC "-//W3C//DTD SVG 1.1//EN" "http://www.w3.org/Graphics/SVG/1.1/DTD/svg11.dtd">
<svg version="1.1" id="Layer_1" xmlns="http://www.w3.org/2000/svg" xmlns:xlink="http://www.w3.org/1999/xlink" x="0px" y="0px"
	 width="16px" height="16px" viewBox="0 0 16 16" style="enable-background:new 0 0 16 16;" xml:space="preserve">
<path style="fill:none;" d="M0,16"/>
<path style="fill:none;" d="M16,16"/>
<path style="fill:none;" d="M0,0"/>
<path style="fill:none;" d="M16,0"/>
<path style="fill:none;" d="M16,0"/>
<line style="fill:none;" x1="16" y1="0" x2="0" y2="0"/>
<rect x="12" style="fill:none;" width="4" height="4"/>
<rect x="12" y="2" style="fill:#00A651;" width="2" height="2"/>
<rect x="14" style="fill:#00A651;" width="2" height="2"/>
<rect x="12" y="4" style="fill:none;" width="4" height="4"/>
<rect x="12" y="6" style="fill:#00A651;" width="2" height="2"/>
<rect x="14" y="4" style="fill:#00A651;" width="2" height="2"/>
<rect x="12" y="8" style="fill:none;" width="4" height="4"/>
<rect x="12" y="10" style="fill:#00A651;" width="2" height="2"/>
<rect x="14" y="8" style="fill:#00A651;" width="2" height="2"/>
<rect x="12" y="12" style="fill:none;" width="4" height="4"/>
<rect x="12" y="14" style="fill:#00A651;" width="2" height="2"/>
<rect x="14" y="12" style="fill:#00A651;" width="2" height="2"/>
<rect x="8" style="fill:none;" width="4" height="4"/>
<rect x="8" y="2" style="fill:#00A651;" width="2" height="2"/>
<rect x="10" style="fill:#00A651;" width="2" height="2"/>
<rect x="8" y="4" style="fill:none;" width="4" height="4"/>
<rect x="8" y="6" style="fill:#00A651;" width="2" height="2"/>
<rect x="10" y="4" style="fill:#00A651;" width="2" height="2"/>
<rect x="8" y="8" style="fill:none;" width="4" height="4"/>
<rect x="8" y="10" style="fill:#00A651;" width="2" height="2"/>
<rect x="10" y="8" style="fill:#00A651;" width="2" height="2"/>
<rect x="8" y="12" style="fill:none;" width="4" height="4"/>
<rect x="8" y="14" style="fill:#00A651;" width="2" height="2"/>
<rect x="10" y="12" style="fill:#00A651;" width="2" height="2"/>
<rect x="4" style="fill:none;" width="4" height="4"/>
<rect x="4" y="2" style="fill:#00A651;" width="2" height="2"/>
<rect x="6" style="fill:#00A651;" width="2" height="2"/>
<rect x="4" y="4" style="fill:none;" width="4" height="4"/>
<rect x="4" y="6" style="fill:#00A651;" width="2" height="2"/>
<rect x="6" y="4" style="fill:#00A651;" width="2" height="2"/>
<rect x="4" y="8" style="fill:none;" width="4" height="4"/>
<rect x="4" y="10" style="fill:#00A651;" width="2" height="2"/>
<rect x="6" y="8" style="fill:#00A651;" width="2" height="2"/>
<rect x="4" y="12" style="fill:none;" width="4" height="4"/>
<rect x="4" y="14" style="fill:#00A651;" width="2" height="2"/>
<rect x="6" y="12" style="fill:#00A651;" width="2" height="2"/>
<rect style="fill:none;" width="4" height="4"/>
<rect y="2" style="fill:#00A651;" width="2" height="2"/>
<rect x="2" style="fill:#00A651;" width="2" height="2"/>
<rect y="4" style="fill:none;" width="4" height="4"/>
<rect y="6" style="fill:#00A651;" width="2" height="2"/>
<rect x="2" y="4" style="fill:#00A651;" width="2" height="2"/>
<rect y="8" style="fill:none;" width="4" height="4"/>
<rect y="10" style="fill:#00A651;" width="2" height="2"/>
<rect x="2" y="8" style="fill:#00A651;" width="2" height="2"/>
<rect y="12" style="fill:none;" width="4" height="4"/>
<rect y="14" style="fill:#00A651;" width="2" height="2"/>
<rect x="2" y="12" style="fill:#00A651;" width="2" height="2"/>
</svg>
